<?xml version="1.0" standalone="no"?><!DOCTYPE svg PUBLIC "-//W3C//DTD SVG 1.1//EN" "http://www.w3.org/Graphics/SVG/1.1/DTD/svg11.dtd"><svg t="1581952092892" class="icon" viewBox="0 0 1024 1024" version="1.1" xmlns="http://www.w3.org/2000/svg" p-id="6035" xmlns:xlink="http://www.w3.org/1999/xlink" width="64" height="64"><defs><style type="text/css"></style></defs><path d="M910.597347 195.772872C793.408554 127.956874 576.214075 0.229108 512.865685 0 449.674807 0.229108 233.353803 127.956874 113.759374 196.173811 89.932132 209.86302 72.519916 234.033924 73.078367 261.64145 75.025786 361.647136 88.314056 460.507281 140.378872 591.671669c112.721185 284.208598 310.727861 417.664067 366.114744 431.639661a26.419028 26.419028 0 0 0 5.956811 0.687324 22.366678 22.366678 0 0 0 6.185918-0.801878c63.462944-16.724891 258.663045-164.671447 364.740096-431.525107 52.007539-130.706171 65.410363-230.139087 67.472335-330.946651 0.644367-24.45729-18.257052-54.756836-40.251429-64.952146z m-506.214347 141.474252a106.86461 106.86461 0 0 1 108.940901-106.878929c58.708951 1.145541 107.108037 52.236647 104.93151 111.002874-2.520189 68.15966-68.73243 120.052645-141.016036 97.714605-43.988755-13.631932-73.028207-55.845099-72.856375-101.666719z m320.865894 289.019868a31.974899 31.974899 0 0 1-31.96058 31.96058H329.393054a31.974899 31.974899 0 0 1-31.96058-31.96058V597.112986c0-81.333376 142.619792-122.343726 213.986966-122.343725S725.248894 515.836888 725.248894 597.112986z" p-id="6036"></path></svg>