<?xml version="1.0" standalone="no"?><!DOCTYPE svg PUBLIC "-//W3C//DTD SVG 1.1//EN" "http://www.w3.org/Graphics/SVG/1.1/DTD/svg11.dtd"><svg t="1581848111528" class="icon" viewBox="0 0 1024 1024" version="1.1" xmlns="http://www.w3.org/2000/svg" p-id="7549" xmlns:xlink="http://www.w3.org/1999/xlink" width="64" height="64"><defs><style type="text/css"></style></defs><path d="M748.8 486.4c12.8 12.8 12.8 32 0 44.8l-179.2 185.6c-12.8 12.8-32 12.8-44.8 0-12.8-12.8-12.8-32-6.4-44.8l128-128H224c-19.2 0-32-12.8-32-32s12.8-32 32-32h422.4l-128-128c-6.4-12.8-6.4-32 0-44.8 12.8-12.8 32-12.8 44.8 0l185.6 179.2z" fill="#1C4FCF" p-id="7550"></path><path d="M1024 512c0 281.6-230.4 512-512 512s-512-230.4-512-512 230.4-512 512-512 512 230.4 512 512zM64 512c0 249.6 198.4 448 448 448s448-198.4 448-448-198.4-448-448-448-448 198.4-448 448z" fill="#1C4FCF" p-id="7551"></path></svg>