<?xml version="1.0" standalone="no"?><!DOCTYPE svg PUBLIC "-//W3C//DTD SVG 1.1//EN" "http://www.w3.org/Graphics/SVG/1.1/DTD/svg11.dtd"><svg t="1581848206710" class="icon" viewBox="0 0 1024 1024" version="1.1" xmlns="http://www.w3.org/2000/svg" p-id="12096" xmlns:xlink="http://www.w3.org/1999/xlink" width="64" height="64"><defs><style type="text/css"></style></defs><path d="M533.597071 626.268987h-63.767214v-31.185426c0-25.320704 5.119995-47.103957 15.359986-65.349759 10.239991-18.199256 28.625429-37.469057 54.970131-57.716311 25.879249-19.828346 44.404323-38.35342 55.528677-55.621768 11.077808-17.268348 16.663258-37.143239 16.663258-59.578127 0-23.924342-8.610901-43.613051-25.832704-59.066129-17.221803-15.453077-40.634145-23.179615-70.143936-23.179615-46.685048 0-87.691557 17.501075-123.112616 52.549771V253.207508a249.017955 249.017955 0 0 1 133.352606-38.027602c47.615957 0 85.550468 12.38108 113.756988 37.143239 28.20652 24.762159 42.30978 57.157766 42.30978 97.279912 0 27.973793-6.609449 53.434133-19.781801 76.334476-13.218897 22.993434-35.327968 47.150503-66.327212 72.471207-24.901796 20.526527-41.611599 36.817421-50.175954 48.872682-8.564356 12.101807-12.799988 28.997792-12.799989 50.7345v28.253065z m-32.25597 75.729386c12.939625 0 24.063978 4.46836 33.326515 13.358533 9.309082 8.936719 13.963624 19.828346 13.963623 32.581789 0 13.032715-4.654541 24.017433-13.963623 32.814515-9.309082 8.843628-20.386891 13.218897-33.326515 13.218897a46.126504 46.126504 0 0 1-32.581789-13.032715 43.194143 43.194143 0 0 1-13.963624-32.954152c0-13.032715 4.607996-23.970887 13.730897-32.76797a45.614504 45.614504 0 0 1 32.814516-13.218897z" fill="#FF7702" p-id="12097"></path><path d="M512 1023.999535a510.137718 510.137718 0 0 1-362.030216-149.969319A510.230809 510.230809 0 0 1 0.000465 512a510.230809 510.230809 0 0 1 149.969319-362.030216A510.184263 510.184263 0 0 1 512 0.000465a510.184263 510.184263 0 0 1 362.030216 149.969319A510.091173 510.091173 0 0 1 1023.999535 512a510.137718 510.137718 0 0 1-149.969319 362.030216A510.137718 510.137718 0 0 1 512 1023.999535z m0-969.540937c-252.276134 0-457.541402 205.265268-457.541402 457.541402s205.265268 457.541402 457.541402 457.541402 457.541402-205.265268 457.541402-457.541402S764.276134 54.458598 512 54.458598z" fill="#FF7702" p-id="12098"></path></svg>