<?xml version="1.0" standalone="no"?><!DOCTYPE svg PUBLIC "-//W3C//DTD SVG 1.1//EN" "http://www.w3.org/Graphics/SVG/1.1/DTD/svg11.dtd"><svg t="1580618956411" class="icon" viewBox="0 0 1024 1024" version="1.1" xmlns="http://www.w3.org/2000/svg" p-id="30408" xmlns:xlink="http://www.w3.org/1999/xlink" width="200" height="200"><defs><style type="text/css"></style></defs><path d="M900.85 468.688s-147.067 31.298-187.721 42.293c-40.296 10.903-90.29-68.304-103.703-71.143-8.59 24.805-36.258 97.775-52.85 147.26 25.64-0.762 158.51 39.544 163.346 63.016 5.524 23.786 67.633 280.974 67.633 280.974s26.343 55.262-48.4 75.48c-74.808 20.24-78.136-41.243-78.136-41.243s-52.107-197.509-56.76-209.437c-4.309-11.9-101.65-31.968-123.952-25.932-22.501 6.084-70.6 174.498-118.032 185.985-60.997 14.774-239.699-93.74-239.699-93.74s-70.601-17.47-56.161-83.706c14.697-65.758 83.159-47.829 83.159-47.829s126.506 69.545 141.102 61.384c14.796-8.277 23.116-56.225 44.717-102.783 0.872-17.515 50.584-156.971 50.584-156.971s27.466-92.81 16.537-98.618c-15.082-8.02-30.89 9.103-39.167 23.23-8.276 14.125-41.08 72.113-95.972 147.758-48.798 67.27-135.752 4.8-99.582-58.08 30.065-52.28 110.098-201.902 167.657-230.054 57.988-28.389 157.883-44.176 242.895-24.2 85.399 19.505 145.4 116.282 162.122 129.096 16.408 12.293 131.444-24.933 131.444-24.933s65.564-22.802 81.775 37.04c16.309 60.23-52.835 75.153-52.835 75.153zM631.599 222.054c-60.326 16.317-121.654-18.614-137.835-78.335C477.668 84.332 512.87 22.79 573.196 6.469c60.17-16.275 121.81 19.07 137.906 78.45 16.182 59.728-19.318 120.855-79.504 137.135z m0 0" p-id="30409"></path></svg>