<?xml version="1.0" standalone="no"?><!DOCTYPE svg PUBLIC "-//W3C//DTD SVG 1.1//EN" "http://www.w3.org/Graphics/SVG/1.1/DTD/svg11.dtd"><svg t="1582537486459" class="icon" viewBox="0 0 1024 1024" version="1.1" xmlns="http://www.w3.org/2000/svg" p-id="8521" xmlns:xlink="http://www.w3.org/1999/xlink" width="64" height="64"><defs><style type="text/css"></style></defs><path d="M0 310.4h1024v-256H0v256z m960-192v128H64v-128h896z" p-id="8522"></path><path d="M128 160h512v38.4H128z" p-id="8523"></path><path d="M864 182.4m-32 0a32 32 0 1 0 64 0 32 32 0 1 0-64 0Z" p-id="8524"></path><path d="M0 630.4h1024v-256H0v256z m960-192v128H64v-128h896z" p-id="8525"></path><path d="M128 480h512v38.4H128z" p-id="8526"></path><path d="M864 502.4m-32 0a32 32 0 1 0 64 0 32 32 0 1 0-64 0Z" p-id="8527"></path><path d="M0 960h1024v-256H0v256z m960-192v128H64v-128h896z" p-id="8528"></path><path d="M128 812.8h512v38.4H128z" p-id="8529"></path><path d="M864 832m-32 0a32 32 0 1 0 64 0 32 32 0 1 0-64 0Z" p-id="8530"></path></svg>