<?xml version="1.0" standalone="no"?><!DOCTYPE svg PUBLIC "-//W3C//DTD SVG 1.1//EN" "http://www.w3.org/Graphics/SVG/1.1/DTD/svg11.dtd"><svg t="1580617967621" class="icon" viewBox="0 0 1024 1024" version="1.1" xmlns="http://www.w3.org/2000/svg" p-id="12178" xmlns:xlink="http://www.w3.org/1999/xlink" width="200" height="200"><defs><style type="text/css"></style></defs><path d="M230.4 665.6h563.2v307.2H230.4z" p-id="12179"></path><path d="M358.4 870.4m-51.2 0a51.2 51.2 0 1 0 102.4 0 51.2 51.2 0 1 0-102.4 0Z" p-id="12180"></path><path d="M512 870.4m-51.2 0a51.2 51.2 0 1 0 102.4 0 51.2 51.2 0 1 0-102.4 0Z" p-id="12181"></path><path d="M665.6 870.4m-51.2 0a51.2 51.2 0 1 0 102.4 0 51.2 51.2 0 1 0-102.4 0Z" p-id="12182"></path><path d="M307.2 102.4h409.6v51.2H307.2zM307.2 307.2h409.6v51.2H307.2zM307.2 512h409.6v51.2H307.2z" p-id="12183"></path><path d="M793.6 0H230.4C202.24 0 179.2 23.04 179.2 51.2v921.6c0 28.16 23.04 51.2 51.2 51.2h563.2c28.16 0 51.2-23.04 51.2-51.2V51.2c0-28.16-23.04-51.2-51.2-51.2zM230.4 51.2h563.2v153.6H230.4V51.2z m0 204.8h563.2v153.6H230.4v-153.6z m563.2 716.8H230.4V665.6h563.2v307.2zM230.4 614.4v-153.6h563.2v153.6H230.4z" p-id="12184"></path></svg>