<?xml version="1.0" standalone="no"?><!DOCTYPE svg PUBLIC "-//W3C//DTD SVG 1.1//EN" "http://www.w3.org/Graphics/SVG/1.1/DTD/svg11.dtd"><svg t="1580618200530" class="icon" viewBox="0 0 1024 1024" version="1.1" xmlns="http://www.w3.org/2000/svg" p-id="13725" xmlns:xlink="http://www.w3.org/1999/xlink" width="200" height="200"><defs><style type="text/css"></style></defs><path d="M144.5 729.8v199c0 16.1 13.1 29.2 29.2 29.2h531.8c16.1 0 29.2-13.1 29.2-29.3V729.8H144.5z m326.5 100c0 17.3-14.1 31.3-31.4 31.3-17.3 0-31.4-14-31.4-31.3s14.1-31.3 31.4-31.3c17.4 0 31.4 14 31.4 31.3z" fill="#bfbfbf" p-id="13726"></path><path d="M706.9 207.6H172.4c-15.4 0-27.9 12.5-27.9 27.8v444.2h590.3V235.5c0-15.4-12.5-27.9-27.9-27.9zM293.5 565.8H266c-14.8 0-26.9-11.9-26.9-26.8 0-14.8 12-26.8 26.9-26.8h27.5c14.8 0 26.9 11.9 26.9 26.8-0.1 14.7-12 26.8-26.9 26.8z m0-182.3H266c-14.8 0-26.9-11.9-26.9-26.8s12-26.8 26.9-26.8h27.5c14.8 0 26.9 11.9 26.9 26.8s-12 26.8-26.9 26.8zM616 565.8H377.3c-14.8 0-26.9-11.9-26.9-26.8 0-14.8 12-26.8 26.9-26.8H616c14.8 0 26.9 11.9 26.9 26.8-0.1 14.7-12 26.8-26.9 26.8z m0-182.3H377.3c-14.8 0-26.9-11.9-26.9-26.8s12-26.8 26.9-26.8H616c14.8 0 26.9 11.9 26.9 26.8-0.1 14.9-12 26.8-26.9 26.8z" fill="#bfbfbf" p-id="13727"></path><path d="M839.6 66H345.4c-22.1 0-39.9 17.9-39.9 39.9v5.1c0 22 17.9 39.9 39.9 39.9h408.9c22.1 0 39.9 17.9 39.9 39.9v532.5c0 22 17.9 39.9 39.9 39.9h5.1c22.1 0 39.9-17.9 39.9-39.9V150.9h0.2v-45c0.2-22-17.7-39.9-39.7-39.9z" fill="#bfbfbf" p-id="13728"></path></svg>