<?xml version="1.0" standalone="no"?><!DOCTYPE svg PUBLIC "-//W3C//DTD SVG 1.1//EN" "http://www.w3.org/Graphics/SVG/1.1/DTD/svg11.dtd"><svg t="1580619081336" class="icon" viewBox="0 0 1024 1024" version="1.1" xmlns="http://www.w3.org/2000/svg" p-id="33125" xmlns:xlink="http://www.w3.org/1999/xlink" width="200" height="200"><defs><style type="text/css"></style></defs><path d="M1007.37024 930.6112l-85.07392-86.34368a260.95616 260.95616 0 0 0 38.37952-136.88832 255.83616 255.83616 0 1 0-255.83616 259.6864 255.83616 255.83616 0 0 0 143.89248-44.76928l83.80416 85.72928c9.87136 10.24 23.51104 15.9744 37.72416 15.9744A53.73952 53.73952 0 0 0 1024 969.64608a55.66464 55.66464 0 0 0-15.9744-38.37952l-0.65536-0.65536z m-303.80032-44.11392a179.07712 179.07712 0 1 1 177.152-179.11808 178.46272 178.46272 0 0 1-177.152 179.11808z" p-id="33126"></path><path d="M793.76384 0H127.91808C95.96928 0 0 90.80832 0 127.91808V831.488a223.232 223.232 0 0 0 127.91808 127.91808h319.81568a326.8608 326.8608 0 0 1-37.10976-479.72352h-31.9488a49.23392 49.23392 0 0 1-49.27488-46.03904c3.93216-27.4432 26.66496-48.3328 54.35392-49.88928h127.91808c53.28896-13.43488 108.1344-19.6608 163.10272-18.55488a282.70592 282.70592 0 0 1 220.65152 99.1232V127.95904C895.42656 92.73344 831.488 0 793.8048 0zM223.8464 255.83616a31.9488 31.9488 0 1 1 0-63.93856 31.9488 31.9488 0 0 1 0 63.93856z m483.5328-29.40928a30.72 30.72 0 0 1-30.72 30.72H356.92544a30.72 30.72 0 0 1-30.72-30.72 30.72 30.72 0 0 1 28.18048-34.52928h319.77472a30.72 30.72 0 0 1 30.72 30.72l2.53952 3.80928z" p-id="33127"></path></svg>