<?xml version="1.0" standalone="no"?><!DOCTYPE svg PUBLIC "-//W3C//DTD SVG 1.1//EN" "http://www.w3.org/Graphics/SVG/1.1/DTD/svg11.dtd"><svg t="1582031604020" class="icon" viewBox="0 0 1024 1024" version="1.1" xmlns="http://www.w3.org/2000/svg" p-id="4675" xmlns:xlink="http://www.w3.org/1999/xlink" width="64" height="64"><defs><style type="text/css"></style></defs><path d="M950.51 290.685a37.953 37.953 0 0 0-37.93 37.94v619.54H154.083v-193.08h28.439a37.941 37.941 0 0 0 0-75.859H49.786c-20.948-0.011-37.93 16.959-37.93 37.907s16.982 37.94 37.93 37.94h28.438v193.08A75.929 75.929 0 0 0 154.072 1024H912.58a75.94 75.94 0 0 0 75.848-75.847V328.614a37.941 37.941 0 0 0-37.918-37.93zM49.786 583.967h132.736a37.93 37.93 0 0 0 0-75.86H49.786a37.918 37.918 0 1 0 0 75.86z m0-171.108h132.736a37.93 37.93 0 0 0 0-75.847H49.786a37.918 37.918 0 1 0 0 75.847z m0-171.095h132.736a37.93 37.93 0 0 0 0-75.86h-28.439V75.868h499.272a37.918 37.918 0 0 0 0-75.859H154.083a75.94 75.94 0 0 0-75.847 75.847v90.038h-28.45a37.941 37.941 0 0 0 0 75.87z m0 0" p-id="4676"></path><path d="M958.896 102.63L878.43 22.178a75.964 75.964 0 0 0-107.275 0L355.502 437.832c-0.21 0.22-0.338 0.465-0.536 0.674-0.953 0.977-1.767 2.082-2.593 3.175-0.721 0.943-1.49 1.838-2.106 2.827-0.593 0.942-1.058 1.989-1.57 3-0.651 1.257-1.314 2.525-1.814 3.862-0.093 0.256-0.256 0.466-0.338 0.733l-72.462 206.548a37.918 37.918 0 1 0 48.34 48.328l206.547-72.451c0.268-0.093 0.489-0.245 0.744-0.361 1.315-0.477 2.536-1.14 3.792-1.745 1.035-0.546 2.094-1.023 3.06-1.616 0.965-0.617 1.849-1.361 2.744-2.048 1.128-0.86 2.257-1.698 3.269-2.675 0.209-0.186 0.442-0.314 0.64-0.523l415.677-415.654a75.952 75.952 0 0 0 0-107.275zM551.383 510.144L470.93 429.69l208.734-208.746 80.465 80.453-208.746 208.746zM415.24 485.392l2.047-2.059 80.453 80.453-2.047 2.047-123.92 43.478 43.467-123.92z m398.51-237.627l-80.454-80.453 91.492-91.48 80.453 80.453-91.491 91.48z m0 0" p-id="4677"></path></svg>