<?xml version="1.0" standalone="no"?><!DOCTYPE svg PUBLIC "-//W3C//DTD SVG 1.1//EN" "http://www.w3.org/Graphics/SVG/1.1/DTD/svg11.dtd"><svg t="1581951947677" class="icon" viewBox="0 0 1024 1024" version="1.1" xmlns="http://www.w3.org/2000/svg" p-id="1931" xmlns:xlink="http://www.w3.org/1999/xlink" width="64" height="64"><defs><style type="text/css"></style></defs><path d="M952.832 911.872s-25.6 45.056-84.992 45.056h-716.8c-33.28 0-61.44-17.92-77.312-45.056 0 0-12.288-12.8-12.288-45.056V844.8h1.536c11.776-135.68 131.072-248.832 294.4-293.376-70.144-48.64-116.736-129.536-116.736-221.696 0-148.48 120.32-268.8 268.8-268.8s268.8 120.32 268.8 268.8c0 92.16-46.592 173.056-117.248 221.696C824.32 595.456 943.616 709.12 955.392 844.8h1.536v22.528c0 14.848-1.536 29.696-4.096 44.544z" p-id="1932"></path></svg>