<?xml version="1.0" standalone="no"?><!DOCTYPE svg PUBLIC "-//W3C//DTD SVG 1.1//EN" "http://www.w3.org/Graphics/SVG/1.1/DTD/svg11.dtd"><svg t="1581555996484" class="icon" viewBox="0 0 1024 1024" version="1.1" xmlns="http://www.w3.org/2000/svg" p-id="1622" xmlns:xlink="http://www.w3.org/1999/xlink" width="64" height="64"><defs><style type="text/css"></style></defs><path d="M511.54409739 223.12870956v289.04225392L289.97542956 697.78031305a289.66912 289.66912 0 0 0 351.44392348 72.3175513 288.70032696 288.70032696 0 0 0 151.5876174-324.71663305 289.27020522 289.27020522 0 0 0-281.46287305-222.25252174z" fill="#1296db" p-id="1623"></path><path d="M512-0.89043478c-283.05853218 0-512.89043478 229.83190261-512.89043478 512.89043478a513.11838608 513.11838608 0 0 0 512.89043478 512.89043478c283.05853218 0 512.89043478-229.83190261 512.89043478-512.89043478a513.17537392 513.17537392 0 0 0-512.89043478-512.89043478z m0 897.55826087a384.66782609 384.66782609 0 1 1 0-769.33565218 384.66782609 384.66782609 0 0 1 0 769.33565218z" fill="#1296db" p-id="1624"></path></svg>