<?xml version="1.0" standalone="no"?><!DOCTYPE svg PUBLIC "-//W3C//DTD SVG 1.1//EN" "http://www.w3.org/Graphics/SVG/1.1/DTD/svg11.dtd"><svg t="1581555977881" class="icon" viewBox="0 0 1024 1024" version="1.1" xmlns="http://www.w3.org/2000/svg" p-id="1220" xmlns:xlink="http://www.w3.org/1999/xlink" width="64" height="64"><defs><style type="text/css"></style></defs><path d="M513.69908148 9.83646815c-369.35604148 0-645.94223408 397.22097778-425.88690963 787.77912888a374.67173925 374.67173925 0 0 0 142.27380148 142.26166519C620.64412445 1159.89617778 1017.84082963 883.37066667 1017.84082963 513.96608c0-278.43090963-225.73511111-504.14174815-504.14174815-504.14174815z m-57.29545481 727.57096296l-14.56355556 14.56355556a33.38695111 33.38695111 0 0 1-47.21019259 0L212.64611555 570.03576889a33.38695111 33.38695111 0 0 1 0-47.21019259l29.12711112-29.12711112a33.38695111 33.38695111 0 0 1 47.21019258 0l105.58577778 105.58577779a33.38695111 33.38695111 0 0 0 47.2101926 0l296.57467259-296.59894519a33.38695111 33.38695111 0 0 1 47.2101926 0l29.1271111 29.12711111a33.38695111 33.38695111 0 0 1 0 47.21019259l-358.28773925 358.38482963z" fill="#67C23A" p-id="1221"></path></svg>