<?xml version="1.0" standalone="no"?><!DOCTYPE svg PUBLIC "-//W3C//DTD SVG 1.1//EN" "http://www.w3.org/Graphics/SVG/1.1/DTD/svg11.dtd"><svg t="1580618686427" class="icon" viewBox="0 0 1024 1024" version="1.1" xmlns="http://www.w3.org/2000/svg" p-id="18927" xmlns:xlink="http://www.w3.org/1999/xlink" width="200" height="200"><defs><style type="text/css"></style></defs><path d="M472.615 137.846l-33.477-33.477c-9.846-9.846-23.63-9.846-33.476 0L196.923 311.14l-84.677-82.708c-9.846-9.846-23.63-9.846-33.477 0l-33.477 33.477c-9.846 9.846-9.846 23.63 0 33.477l116.185 116.184c9.846 9.846 21.661 13.785 33.477 13.785 11.815 0 23.63-3.939 33.477-13.785l244.184-240.246c7.877-7.877 7.877-23.63 0-33.477z m480.493 224.492h-411.57c-17.723 0-31.507-13.784-31.507-31.507v-63.016c0-17.723 13.784-31.507 31.507-31.507h411.57c17.723 0 31.507 13.784 31.507 31.507v63.016c0 17.723-13.784 31.507-31.507 31.507z m0 281.6H447.015c-17.723 0-31.507-13.784-31.507-31.507v-63.016c0-17.723 13.784-31.507 31.507-31.507h506.093c17.723 0 31.507 13.784 31.507 31.507v63.016c0 17.723-13.784 31.507-31.507 31.507z m-697.108 0h-63.015c-17.723 0-31.508-13.784-31.508-31.507v-63.016c0-17.723 13.785-31.507 31.508-31.507H256c17.723 0 31.508 13.784 31.508 31.507v63.016c1.969 17.723-13.785 31.507-31.508 31.507z m0 281.6h-63.015c-17.723 0-31.508-13.784-31.508-31.507v-63.016c0-17.723 13.785-31.507 31.508-31.507H256c17.723 0 31.508 13.784 31.508 31.507v63.016c1.969 17.723-13.785 31.507-31.508 31.507z m697.108 0H447.015c-17.723 0-31.507-13.784-31.507-31.507v-63.016c0-17.723 13.784-31.507 31.507-31.507h506.093c17.723 0 31.507 13.784 31.507 31.507v63.016c0 17.723-13.784 31.507-31.507 31.507z" p-id="18928"></path></svg>