<?xml version="1.0" standalone="no"?><!DOCTYPE svg PUBLIC "-//W3C//DTD SVG 1.1//EN" "http://www.w3.org/Graphics/SVG/1.1/DTD/svg11.dtd"><svg t="1581561807671" class="icon" viewBox="0 0 1024 1024" version="1.1" xmlns="http://www.w3.org/2000/svg" p-id="3201" xmlns:xlink="http://www.w3.org/1999/xlink" width="64" height="64"><defs><style type="text/css"></style></defs><path d="M512 0C230.4 0 0 230.4 0 512s230.4 512 512 512 512-230.4 512-512S793.6 0 512 0z" fill="#676767" p-id="3202"></path><path d="M512 881.4c-36.6 0-65.8-29.3-65.8-65.8 0-36.6 29.3-65.8 65.8-65.8 36.6 0 65.8 29.3 65.8 65.8s-29.2 65.8-65.8 65.8z m153.6-376.7l-69.5 58.5c-18.3 14.6-29.3 36.6-29.3 58.5V651c0 36.6-32.9 62.2-69.5 54.9-25.6-7.3-40.2-29.3-40.2-54.9v-65.8c0-32.9 14.6-62.2 40.2-84.1l87.8-73.1c7.3-7.3 14.6-14.6 18.3-21.9 29.3-47.5-11-109.7-65.8-109.7h-32.9c-65.8 0-120.7 54.9-124.3 120.7 0 25.6-18.3 51.2-43.9 58.5-36.6 7.3-65.8-21.9-65.8-54.9 0-128 106.1-234.1 234.1-234.1h14.6c65.8 0 135.3 32.9 175.5 87.8 54.8 80.3 36.5 175.4-29.3 230.3z" fill="#FFFFFF" p-id="3203"></path></svg>