<?xml version="1.0" standalone="no"?><!DOCTYPE svg PUBLIC "-//W3C//DTD SVG 1.1//EN" "http://www.w3.org/Graphics/SVG/1.1/DTD/svg11.dtd"><svg t="1580619153119" class="icon" viewBox="0 0 1024 1024" version="1.1" xmlns="http://www.w3.org/2000/svg" p-id="34568" xmlns:xlink="http://www.w3.org/1999/xlink" width="200" height="200"><defs><style type="text/css"></style></defs><path d="M434.736677 456.126495a223.56911 223.56911 0 0 0 217.368339-228.063247A223.56911 223.56911 0 0 0 434.736677 0a223.56911 223.56911 0 0 0-217.368338 228.063248 223.56911 223.56911 0 0 0 217.368338 228.063247z m131.297076 456.126496H0v-113.775629c0-153.938426 288.023004-228.063248 434.736677-228.063248a754.104867 754.104867 0 0 1 187.388461 27.419927 291.379385 291.379385 0 0 0-78.675848 200.643321 295.816635 295.816635 0 0 0 22.755126 113.775629z m243.422957-34.132689a79.64294 79.64294 0 1 1 76.115896-79.64294 78.960286 78.960286 0 0 1-76.115896 79.64294z m160.878739-56.887814c0-6.826538 2.161737-13.709963 2.161737-22.755126a73.499056 73.499056 0 0 0-2.161737-22.755126l45.510252-38.740601a11.377563 11.377563 0 0 0 2.161737-13.709963l-43.462291-79.642941a11.775778 11.775778 0 0 0-13.027309-2.275512l-54.327863 22.755126a204.284141 204.284141 0 0 0-36.977079-22.755126l-8.703836-59.277103a9.045162 9.045162 0 0 0-8.703835-11.377563h-86.753917a11.832665 11.832665 0 0 0-10.865573 9.102051l-8.703835 61.552615a162.357822 162.357822 0 0 0-36.97708 22.755126l-52.166125-22.755126a13.084197 13.084197 0 0 0-15.245935 4.551025l-43.46229 79.64294a12.970422 12.970422 0 0 0 4.323474 13.653076l45.510252 36.465089c0 6.826538-2.161737 13.709963-2.161737 22.755125a73.612832 73.612832 0 0 0 2.161737 22.755126l-45.510252 38.797489a11.377563 11.377563 0 0 0-2.161737 13.709964l43.46229 79.64294a11.775778 11.775778 0 0 0 13.02731 2.275512l54.327863-22.755125a204.796132 204.796132 0 0 0 36.977079 22.755125l8.703836 59.277103a10.126031 10.126031 0 0 0 10.694909 9.10205h86.981468a11.832665 11.832665 0 0 0 10.865572-9.10205l8.931387-59.163327a204.397917 204.397917 0 0 0 36.920192-22.755126l54.327862 22.755126a10.182919 10.182919 0 0 0 13.02731-4.551025l43.46229-79.64294a10.638021 10.638021 0 0 0-2.161737-13.709964l-50.004389-36.465089z" p-id="34569"></path></svg>