<?xml version="1.0" standalone="no"?><!DOCTYPE svg PUBLIC "-//W3C//DTD SVG 1.1//EN" "http://www.w3.org/Graphics/SVG/1.1/DTD/svg11.dtd"><svg t="1582031205283" class="icon" viewBox="0 0 1024 1024" version="1.1" xmlns="http://www.w3.org/2000/svg" p-id="2640" xmlns:xlink="http://www.w3.org/1999/xlink" width="64" height="64"><defs><style type="text/css"></style></defs><path d="M955.904 803.328l-41.472-8.192c-4.608-1.024-8.704-4.096-10.24-8.704-1.536-3.584-3.072-7.68-4.608-11.264-2.048-4.096-1.536-9.216 1.024-13.312l23.552-35.328c3.584-5.632 3.072-12.8-1.536-17.408l-22.528-22.528c-4.608-4.608-11.776-5.12-17.408-1.536l-35.328 23.552c-4.096 2.56-9.216 3.072-13.312 1.024-3.584-1.536-7.168-3.072-11.264-4.608-4.608-1.536-7.68-5.632-8.704-10.24l-8.192-41.472c-1.024-6.144-6.656-10.752-13.312-10.752h-32.256c-6.656 0-12.288 4.608-13.312 10.752l-8.192 41.472c-1.024 4.608-4.096 8.704-8.704 10.24-3.584 1.536-7.68 3.072-11.264 4.608-4.096 2.048-9.216 1.536-13.312-1.024l-35.328-23.552c-5.632-3.584-12.8-3.072-17.408 1.536l-22.528 22.528c-4.608 4.608-5.12 11.776-1.536 17.408l23.552 35.328c2.56 4.096 3.072 9.216 1.024 13.312-1.536 3.584-3.072 7.168-4.608 11.264-1.536 4.608-5.632 7.68-10.24 8.704l-41.472 8.192c-6.144 1.024-10.752 6.656-10.752 13.312v32.256c0 6.656 4.608 12.288 10.752 13.312l41.472 8.192c4.608 1.024 8.704 4.096 10.24 8.704 1.536 3.584 3.072 7.68 4.608 11.264 2.048 4.096 1.536 9.216-1.024 13.312l-23.552 35.328c-3.584 5.632-3.072 12.8 1.536 17.408l22.528 22.528c4.608 4.608 11.776 5.12 17.408 1.536l35.328-23.552c4.096-2.56 9.216-3.072 13.312-1.024 3.584 1.536 7.168 3.072 11.264 4.608 4.608 1.536 7.68 5.632 8.704 10.24l8.192 41.472c1.024 6.144 6.656 10.752 13.312 10.752h32.256c6.656 0 12.288-4.608 13.312-10.752l8.192-41.472c1.024-4.608 4.096-8.704 8.704-10.24 3.584-1.536 7.68-3.072 11.264-4.608 4.096-2.048 9.216-1.536 13.312 1.024l35.328 23.552c5.632 3.584 12.8 3.072 17.408-1.536l22.528-22.528c4.608-4.608 5.12-11.776 1.536-17.408l-23.552-35.328c-2.56-4.096-3.072-9.216-1.024-13.312 1.536-3.584 3.072-7.168 4.608-11.264 1.536-4.608 5.632-7.68 10.24-8.704l41.472-8.192c6.144-1.024 10.752-6.656 10.752-13.312v-32.256c0.512-6.144-4.096-11.776-10.752-13.312zM834.048 890.88c-31.744 31.744-83.968 31.744-115.712 0-31.744-31.744-31.744-83.968 0-115.712 31.744-31.744 83.968-31.744 115.712 0 15.36 15.36 24.064 36.352 24.064 57.856 0 21.504-8.704 42.496-24.064 57.856z" p-id="2641"></path><path d="M608.256 667.136c0.512-1.024-2.048-1.536-3.072-2.56-9.216-8.704-16.384-18.944-22.016-30.208-4.608-9.728-7.168-20.48-8.192-31.232-0.512-10.24 0-20.992 2.048-31.232 1.024-13.312 6.656-26.112 15.36-36.352 9.728-8.704 19.456-17.408 29.696-26.112 5.632-5.632 10.752-12.288 14.336-19.968 4.096-8.704 7.68-16.896 10.752-26.112 3.072-10.752 6.656-21.504 9.216-32.768 6.656-2.048 12.8-6.144 17.92-11.264 5.632-5.632 10.752-12.288 14.336-19.968 4.608-10.752 7.168-22.528 8.192-34.304 1.024-9.216 1.024-18.432-1.024-27.648-1.024-6.144-3.072-12.288-5.632-18.432-2.56-5.12-6.144-9.728-10.752-13.312 0-27.648-1.536-55.296-5.12-82.432-3.584-25.088-8.704-50.176-15.872-74.752-7.68-26.112-19.968-50.176-36.352-71.68-8.192-10.752-17.92-20.48-29.184-28.672-13.312-10.24-27.648-18.432-42.496-25.6-16.384-7.68-33.792-13.824-51.2-17.92C481.28 2.56 462.848 0 444.416 0c-15.36 0-30.208 1.024-45.568 3.584-16.384 2.56-32.256 7.168-47.104 13.824-16.384 7.168-31.744 16.896-46.08 28.16-15.872 13.312-29.696 28.672-40.96 46.08-13.824 20.48-24.064 43.008-30.208 67.072-6.144 23.04-10.752 46.592-13.824 70.144-3.072 25.6-4.608 51.712-4.096 77.312-5.632 6.144-9.728 13.312-12.8 21.504-2.56 7.68-4.608 15.872-5.12 24.576-1.024 10.752 0.512 21.504 4.096 31.232 2.048 9.216 6.144 18.432 11.264 26.624 3.584 5.12 7.68 10.24 12.8 14.336 4.096 3.072 8.704 5.632 13.312 7.168 3.072 10.752 6.144 21.504 9.216 32.768l10.752 26.112c3.072 7.168 7.68 14.336 13.312 19.968 10.24 8.704 20.48 18.432 29.696 28.16 9.216 10.24 14.848 23.552 15.36 37.376 1.024 10.752 1.024 20.48 1.024 29.696 0 8.704-1.536 17.408-5.12 25.6-3.584 9.216-8.704 17.408-15.36 24.576-8.704 9.728-19.456 18.432-30.72 25.6-17.92 11.776-38.4 20.992-59.392 26.624-22.016 6.144-43.52 12.8-64.512 20.992-19.968 7.168-38.4 17.92-54.272 31.232-16.384 14.848-26.624 35.328-28.16 57.344-6.144 35.84-7.68 71.68-4.096 108.032 0 17.92 5.12 35.328 14.848 49.664 8.192 5.12 17.92 8.704 27.648 10.24 14.848 3.584 32.768 6.656 53.76 10.24s44.544 6.656 70.656 9.728c26.112 3.072 52.224 5.632 77.824 8.192 26.112 2.56 51.2 4.096 76.288 5.632 24.576 1.536 46.08 2.048 64.512 2.048 18.432 0 40.448-0.512 65.536-2.048 26.624-1.536 52.736-3.072 79.36-5.632 10.24-1.024 30.208-3.072 30.208-3.072-55.296-70.656-101.888-215.552-10.24-343.552z" p-id="2642"></path></svg>