<?xml version="1.0" standalone="no"?><!DOCTYPE svg PUBLIC "-//W3C//DTD SVG 1.1//EN" "http://www.w3.org/Graphics/SVG/1.1/DTD/svg11.dtd"><svg t="1581556002132" class="icon" viewBox="0 0 1024 1024" version="1.1" xmlns="http://www.w3.org/2000/svg" p-id="1757" xmlns:xlink="http://www.w3.org/1999/xlink" width="64" height="64"><defs><style type="text/css"></style></defs><path d="M829.728 24.384c12.704 0 23.488 4.448 32.384 13.344s13.344 19.68 13.344 32.384v30.464c0 12.704-4.448 23.488-13.344 32.384s-19.68 13.344-32.384 13.344c0 85.088-21.6 161.6-64.768 229.536s-98.4 113.344-165.728 136.192c67.296 22.848 122.528 68.256 165.728 136.192s64.768 144.448 64.768 229.536c12.704 0 23.488 4.448 32.384 13.344s13.344 19.68 13.344 32.384v30.464c0 12.704-4.448 23.488-13.344 32.384s-19.68 13.344-32.384 13.344h-640c-12.704 0-23.488-4.448-32.384-13.344S144 966.656 144 953.952v-30.464c0-12.704 4.448-23.488 13.344-32.384s19.68-13.344 32.384-13.344c0-85.088 21.6-161.6 64.768-229.536s98.4-113.344 165.728-136.192c-67.296-22.848-122.528-68.256-165.728-136.192S189.728 231.392 189.728 146.304c-12.704 0-23.488-4.448-32.384-13.344S144 113.28 144 100.576v-30.464c0-12.704 4.448-23.488 13.344-32.384S177.024 24.384 189.728 24.384h640z m-142.88 731.424c-16.512-45.728-40.64-82.528-72.384-110.464s-66.656-41.92-104.768-41.92c-38.08 0-73.024 13.952-104.768 41.92s-55.872 64.768-72.384 110.464h354.272z m0-487.616c13.952-38.08 20.96-78.72 20.96-121.92H311.616c0 43.168 6.976 83.808 20.96 121.92h354.272z" fill="#E6A23C" p-id="1758"></path></svg>