<?xml version="1.0" standalone="no"?><!DOCTYPE svg PUBLIC "-//W3C//DTD SVG 1.1//EN" "http://www.w3.org/Graphics/SVG/1.1/DTD/svg11.dtd"><svg class="icon" width="64px" height="64.00px" viewBox="0 0 1024 1024" version="1.1" xmlns="http://www.w3.org/2000/svg"><path fill="#707070" d="M537.317 274.788c-70.708 0-128.253-57.518-128.253-128.228 0-70.68 57.547-128.228 128.253-128.228 70.707 0 128.228 57.518 128.228 128.228 0 70.71-57.518 128.228-128.228 128.228zM264.279 376.611c-64.578 0-117.144-52.54-117.144-117.146S199.701 142.32 264.28 142.32c64.58 0 117.146 52.54 117.146 117.146 0 64.577-52.566 117.146-117.146 117.146z m-116.021 264.99c-56.97 0-103.3-46.327-103.3-103.298 0-56.946 46.328-103.272 103.3-103.272 56.946 0 103.272 46.328 103.272 103.272-0.001 56.97-46.33 103.3-103.272 103.298z m116.021 262.53c-48.296 0-87.593-39.294-87.593-87.594 0-48.296 39.322-87.591 87.593-87.591s87.594 39.294 87.594 87.59c0 48.3-39.295 87.595-87.594 87.595z m273.038 100.372c-42.193 0-76.51-34.316-76.51-76.51 0-42.197 34.315-76.51 76.51-76.51s76.51 34.313 76.51 76.51c0 42.195-34.315 76.51-76.51 76.51z m277.171-129.32c-34.04 0-61.761-27.693-61.761-61.761s27.722-61.76 61.761-61.76c34.042 0 61.759 27.691 61.759 61.76 0 34.068-27.72 61.76-61.759 61.76z m113.505-285.738c-27.938 0-50.678-22.74-50.678-50.677 0-27.939 22.74-50.68 50.678-50.68s50.707 22.74 50.707 50.68c0 27.938-22.768 50.677-50.707 50.677zM775.167 263.267c0 21.717 17.605 39.322 39.32 39.322 21.717 0 39.323-17.606 39.323-39.322 0-21.718-17.606-39.323-39.323-39.323-21.715 0-39.32 17.604-39.32 39.323z" /></svg>